<?xml version="1.0" encoding="utf-8"?>
<!-- Generator: Adobe Illustrator 21.1.0, SVG Export Plug-In . SVG Version: 6.00 Build 0)  -->
<svg version="1.1" id="Layer_1" xmlns="http://www.w3.org/2000/svg" xmlns:xlink="http://www.w3.org/1999/xlink" x="0px" y="0px"
	 viewBox="0 0 100 100" style="enable-background:new 0 0 100 100;" xml:space="preserve">
<style type="text/css">
	.st0{fill:#EAEAEA;}
	.st1{fill:#8C6F45;}
	.st2{fill:#665238;}
	.st3{fill:#94C11E;}
	.st4{fill:#36A23D;}
	.st5{fill:#FFFFFF;}
	.st6{fill:#2F373A;}
</style>
<path class="st0" d="M80,100H20C9,100,0,91,0,80V20C0,9,9,0,20,0h60c11,0,20,9,20,20v60C100,91,91,100,80,100z"/>
<path class="st1" d="M49.3,61.6C55.1,71.6,67,82.1,84,83.8l-0.1-11.9c-18.7-2-25.2-16.5-25.2-16.5L49.3,61.6z"/>
<path class="st2" d="M54.8,63.1c0,0,2,5.7,11.8,10.6c9.8,4.9,17.2,4.9,17.2,4.9l-0.3,5.2l-17-5.5l-10-6.7l-4.9-5.2L54.8,63.1z"/>
<path class="st3" d="M48.6,17.4c0,0-6.6,7.9-6.7,15c-0.1,7.1,6.4,9.9,6.4,9.9s6.5-2.7,6.6-9.8C55,25.4,48.6,17.4,48.6,17.4z"/>
<path class="st4" d="M49.4,16.8l0.4,1c0,0-9,16-1.3,24.2l-2-0.2l-3.9-5.6l0-7.5l3.3-7L49.4,16.8z"/>
<path class="st5" d="M48,18.1c0,0,6.3,15-2.2,24.7c0,0,3.3-1,5.2-3.4c1.9-2.4,2.5-5.7,2.5-5.7l-0.1-7.4l-3.8-7.6L48,18.1z"/>
<path class="st6" d="M48.1,43.9l-0.7-0.3c-0.3-0.1-7.5-3.4-7.4-11.6c0.1-7.7,6.8-15.8,7.1-16.1l1.4-1.7l1.3,1.7
	c0.3,0.3,6.8,8.6,6.7,16.3c-0.1,8.2-7.4,11.3-7.7,11.4L48.1,43.9z M48.3,20c-1.8,2.6-4.8,7.6-4.9,12.1c-0.1,4.6,3.2,7.1,4.7,8
	c1.5-0.8,4.8-3.2,4.8-7.8C53,27.7,50.1,22.7,48.3,20z"/>
<polygon class="st6" points="48.2,27 49.8,42.1 46.3,42 "/>
<path class="st6" d="M85.7,85.7l-1.9-0.2c-22.5-2.3-33.2-18.2-36-23l-0.8-1.4l12.5-8.3l0.8,1.9c0.3,0.6,6.4,13.6,23.8,15.5l1.7,0.2
	V85.7z M51.6,62.2c3.4,5.4,12.8,17.1,30.5,19.6l-0.1-8.4C67.5,71.3,60.4,61.9,58,57.9L51.6,62.2z"/>
<path class="st3" d="M17.7,24.7c0,0,2.2,16.6,10.6,24.6s19,3.4,19,3.4s4-10.8-4.4-18.8S17.7,24.7,17.7,24.7z"/>
<path class="st4" d="M17.6,25.8l1.5,0.6c0,0,8.3,25.7,24.8,25.5l-2.2,2l-9.9-1.3l-8.1-7.5l-4.3-10.5L17.6,25.8z"/>
<path class="st5" d="M21.2,26.4c0,0,22.4,7.6,24.7,24.2c0,0,2.2-4,1.4-8s-3.7-7.4-3.7-7.4l-8.2-6.5l-12-3.3L21.2,26.4z"/>
<path class="st6" d="M39.5,55.8c-3.9,0-8.7-1.1-13-5.2c-8.8-8.3-11.1-25-11.2-25.7L15,22.8l2.1,0.2c0.7,0.1,17.5,1.4,26.3,9.7
	c9.2,8.7,5,20.2,4.9,20.7L48,54l-0.7,0.3C47.1,54.4,43.9,55.8,39.5,55.8z M19.2,26.7c0.9,4.7,3.6,15.6,9.7,21.4
	c6.3,6,14,4.1,16.4,3.3c0.7-2.4,2.2-10.1-4.2-16.2C34.9,29.4,23.9,27.3,19.2,26.7z"/>
<polygon class="st6" points="28.8,35.8 47.9,51.4 45.5,54 "/>
<path class="st3" d="M83.6,23.1c0,0-21.8,1.9-32.7,12.6s-5.4,24.6-5.4,24.6s13.8,5.9,24.7-4.8S83.6,23.1,83.6,23.1z"/>
<path class="st5" d="M82.3,23l-0.9,1.9c0,0-33.9,9.5-34.6,31l-2.5-2.9L46.5,40l10.2-10.2l13.9-5L82.3,23z"/>
<path class="st4" d="M81.3,27.6c0,0-11.1,28.9-33,30.9c0,0,5.2,3,10.3,2.2c5.1-0.8,9.9-4.5,9.9-4.5l9-10.3l5-15.5L81.3,27.6z"/>
<path class="st6" d="M54.6,62.9c-5.4,0-9.4-1.6-9.7-1.8l-0.7-0.3L44,60.1c-0.2-0.6-5.8-15.2,5.8-26.5c11.2-10.9,32.9-13,33.8-13.1
	l2.1-0.2l-0.2,2.1c-0.1,0.9-2.7,22.5-13.9,33.5C65.9,61.4,59.7,62.9,54.6,62.9z M47,58.1c2.8,1,13.4,3.8,22.1-4.7
	c8.3-8.1,11.6-23.4,12.6-29.1c-5.7,0.8-21.1,3.7-29.4,11.8C43.5,44.6,46.1,55.3,47,58.1z"/>
<polygon class="st6" points="68.6,37.1 46.8,60.7 44.4,58.2 "/>
<path class="st3" d="M17.5,59.6c0,0,12.6,10.6,24.1,10.8s16-10.2,16-10.2s-4.2-10.5-15.6-10.7C30.5,49.4,17.5,59.6,17.5,59.6z"/>
<path class="st4" d="M18.2,60.4l1.5-0.5c0,0,23,13.1,34.9,2l-0.3,2.9l-8.1,5.6l-10.8-0.1l-10.1-4.8L18.2,60.4z"/>
<path class="st5" d="M21.2,58.5c0,0,21.3-9.4,34,1.2c0,0-1.1-4.4-4.3-6.7c-3.1-2.3-7.6-2.9-7.6-2.9L33,50.7l-10.9,5.6L21.2,58.5z"/>
<path class="st6" d="M41.4,72.5c-0.1,0-0.2,0-0.3,0c-11.9-0.2-24.6-10.8-25.2-11.2l-1.6-1.4l1.7-1.3c0.5-0.4,13.6-10.6,25.5-10.4
	c12.5,0.2,17,11.3,17.2,11.8l0.3,0.7l-0.3,0.7C58.5,61.8,53.6,72.5,41.4,72.5z M20,60c3.8,2.8,12.9,8.9,21.2,9c0.1,0,0.2,0,0.3,0
	c8.4,0,12.6-6.3,13.7-8.4c-1.1-2.2-5.1-8.7-13.7-8.9C33.2,51.6,23.8,57.3,20,60z"/>
<polygon class="st6" points="33,60.2 57.1,58.8 57.1,62.3 "/>
</svg>
