<?xml version="1.0" encoding="utf-8"?>
<!-- Generator: Adobe Illustrator 21.1.0, SVG Export Plug-In . SVG Version: 6.00 Build 0)  -->
<svg version="1.1" id="Layer_1" xmlns="http://www.w3.org/2000/svg" xmlns:xlink="http://www.w3.org/1999/xlink" x="0px" y="0px"
	 viewBox="0 0 283.5 283.5" style="enable-background:new 0 0 283.5 283.5;" xml:space="preserve">
<style type="text/css">
	.st0{fill:#CCCBCB;}
	.st1{fill:#AAAAAA;}
</style>
<path class="st0" d="M144.7,62.8c-21.9,0.1-43.8,17.2-39.5,45.5s17.7,45.4,39.5,45.5c21.8-0.1,35.2-17.2,39.5-45.5
	S166.6,62.9,144.7,62.8z"/>
<path class="st1" d="M176.3,149c-8.2,8.9-18.8,13.8-31.6,13.9c-13.4-0.1-24.3-5.4-32.7-15.1c-20,4.7-42.8,15.5-42.8,40
	c0,3.5,0,7.6,0,12c0,1,0,2,0,3c0,6.6,5.4,12,12,12h121.2c6.6,0,12-5.4,12-12c0-1,0-2,0-3c0-4.4,0-8.5,0-12
	C214.3,165.2,195,154.3,176.3,149z"/>
</svg>
