<?xml version="1.0" encoding="utf-8"?>
<!-- Generator: Adobe Illustrator 21.1.0, SVG Export Plug-In . SVG Version: 6.00 Build 0)  -->
<svg version="1.1" id="Layer_1" xmlns="http://www.w3.org/2000/svg" xmlns:xlink="http://www.w3.org/1999/xlink" x="0px" y="0px"
	 viewBox="0 0 283.5 283.5" style="enable-background:new 0 0 283.5 283.5;" xml:space="preserve">
<style type="text/css">
	.st0{fill:#AAAAAA;}
	.st1{fill:#F5F5F5;}
	.st2{fill:#CCCBCB;}
</style>
<path class="st0" d="M202.3,69.5H81.1c-6.6,0-12,5.4-12,12v127.9c0,6.6,5.4,12,12,12h121.2c6.6,0,12-5.4,12-12V81.5
	C214.3,74.9,208.9,69.5,202.3,69.5z"/>
<path class="st0" d="M111.6,84.1L111.6,84.1c-3.3,0-6-2.7-6-6V61c0-3.3,2.7-6,6-6l0,0c3.3,0,6,2.7,6,6v17
	C117.6,81.4,114.9,84.1,111.6,84.1z"/>
<path class="st0" d="M171.9,84.1L171.9,84.1c-3.3,0-6-2.7-6-6V61c0-3.3,2.7-6,6-6l0,0c3.3,0,6,2.7,6,6v17
	C177.9,81.4,175.2,84.1,171.9,84.1z"/>
<rect x="82.5" y="95.1" class="st1" width="118.5" height="112.8"/>
<path class="st2" d="M141.7,108.2c-23.9,0-43.3,19.4-43.3,43.3s19.4,43.3,43.3,43.3s43.3-19.4,43.3-43.3S165.6,108.2,141.7,108.2z
	 M141.7,182.6c-17.2,0-31.2-14-31.2-31.2s14-31.2,31.2-31.2s31.2,14,31.2,31.2S158.9,182.6,141.7,182.6z"/>
<polygon class="st0" points="177,116.5 141.7,151.5 129.6,139 121.6,147 133.8,159.4 141.7,167.4 185,124.5 "/>
</svg>
