<?xml version="1.0" encoding="utf-8"?>
<!-- Generator: Adobe Illustrator 21.1.0, SVG Export Plug-In . SVG Version: 6.00 Build 0)  -->
<svg version="1.1" id="Layer_1" xmlns="http://www.w3.org/2000/svg" xmlns:xlink="http://www.w3.org/1999/xlink" x="0px" y="0px"
	 viewBox="0 0 100 100" style="enable-background:new 0 0 100 100;" xml:space="preserve">
<g>
	<path style="fill:#999999;" d="M50.3,50.8c-5.2,0-11.5-6.5-11.5-14c0-7.3,1.4-14,11.5-14s11.5,6.7,11.5,14
		C61.8,44.3,55.5,50.8,50.3,50.8z M50.3,24.8c-7.9,0-9.5,4.4-9.5,12c0,6.8,5.8,12,9.5,12s9.5-5.2,9.5-12
		C59.8,29.2,58.2,24.8,50.3,24.8z"/>
</g>
<g>
	<g>
		<defs>
			<path id="SVGID_1_" d="M40.1,48.8c1.8,3.4,5.6,5.8,9.9,5.8s8.1-2.3,9.9-5.8c2.3,0.8,4.8,1.9,7.7,3.2c2.2,1,3.6,3.1,3.6,5.5v9.1
				c0,3.3-2.7,6-6,6H34.8c-3.3,0-6-2.7-6-6v-9.1c0-2.4,1.4-4.5,3.6-5.5C35.2,50.7,37.8,49.6,40.1,48.8z"/>
		</defs>
		<clipPath id="SVGID_2_">
			<use xlink:href="#SVGID_1_"  style="overflow:visible;"/>
		</clipPath>
		<g style="clip-path:url(#SVGID_2_);">
			<g>
				<defs>
					<rect id="SVGID_3_" x="-0.2" y="-1.2" width="100" height="100"/>
				</defs>
				<clipPath id="SVGID_4_">
					<use xlink:href="#SVGID_3_"  style="overflow:visible;"/>
				</clipPath>
				<path style="clip-path:url(#SVGID_4_);fill:#999999;" d="M65.2,74.5H34.8c-4.4,0-8-3.6-8-8v-9.1c0-3.2,1.9-6,4.7-7.3
					c2.9-1.3,5.5-2.4,7.8-3.2c0.9-0.3,2,0,2.5,0.9c1.5,2.9,4.7,4.7,8.2,4.7s6.6-1.8,8.2-4.7c0.5-0.9,1.5-1.3,2.5-0.9
					c2.3,0.9,4.9,1.9,7.8,3.2s4.7,4.2,4.7,7.3v9.1C73.2,70.9,69.6,74.5,65.2,74.5z M39.3,51.2c-1.8,0.7-3.9,1.6-6.1,2.6
					c-1.4,0.6-2.4,2.1-2.4,3.7v9.1c0,2.2,1.8,4,4,4h30.4c2.2,0,4-1.8,4-4v-9.1c0-1.6-0.9-3-2.4-3.7c-2.2-1-4.2-1.8-6.1-2.6
					c-2.4,3.3-6.4,5.3-10.7,5.3S41.7,54.5,39.3,51.2z"/>
			</g>
		</g>
	</g>
</g>
</svg>
