<?xml version="1.0" encoding="utf-8"?>
<!-- Generator: Adobe Illustrator 21.1.0, SVG Export Plug-In . SVG Version: 6.00 Build 0)  -->
<svg version="1.1" id="Layer_1" xmlns="http://www.w3.org/2000/svg" xmlns:xlink="http://www.w3.org/1999/xlink" x="0px" y="0px"
	 viewBox="0 0 100 100" style="enable-background:new 0 0 100 100;" xml:space="preserve">
<g>
	<defs>
		<path id="SVGID_1_" d="M34.3,43.2c2.4,1.4,3.5,3.9,3,7.4c-3.2,0.9-6,0.7-8.4-0.7c-2.4-1.4-4.1-3.7-4.9-6.9
			C28.4,41.7,31.8,41.8,34.3,43.2z"/>
	</defs>
	<clipPath id="SVGID_2_">
		<use xlink:href="#SVGID_1_"  style="overflow:visible;"/>
	</clipPath>
	<g style="clip-path:url(#SVGID_2_);">
		<defs>
			<rect id="SVGID_3_" x="1" y="0" width="100" height="100"/>
		</defs>
		<clipPath id="SVGID_4_">
			<use xlink:href="#SVGID_3_"  style="overflow:visible;"/>
		</clipPath>
		<path style="clip-path:url(#SVGID_4_);fill:#999999;" d="M33.7,53.1c-2.1,0-4-0.5-5.8-1.6c-2.9-1.7-4.9-4.4-5.8-8.2
			c-0.3-1.1,0.4-2.1,1.4-2.4c4.9-1.3,8.9-1.2,11.8,0.5c0,0,0,0,0,0c2.2,1.3,4.7,3.9,4,9.3c-0.1,0.8-0.7,1.4-1.4,1.7
			C36.4,52.9,35,53.1,33.7,53.1z M26.6,44.3c0.7,1.7,1.8,2.9,3.3,3.8c1.6,0.9,3.5,1.2,5.5,0.9c0-2.5-1.2-3.5-2.1-4
			C31.7,44,29.4,43.8,26.6,44.3z"/>
	</g>
</g>
<g>
	<defs>
		<path id="SVGID_5_" d="M34.3,57.9c-2.4,1.4-5.9,1.5-10.3,0.3c0.8-3.2,2.4-5.5,4.9-6.9c2.4-1.4,5.3-1.7,8.4-0.7
			C37.7,54.1,36.7,56.5,34.3,57.9z"/>
	</defs>
	<clipPath id="SVGID_6_">
		<use xlink:href="#SVGID_5_"  style="overflow:visible;"/>
	</clipPath>
	<g style="clip-path:url(#SVGID_6_);">
		<defs>
			<rect id="SVGID_7_" x="1" y="0" width="100" height="100"/>
		</defs>
		<clipPath id="SVGID_8_">
			<use xlink:href="#SVGID_7_"  style="overflow:visible;"/>
		</clipPath>
		<path style="clip-path:url(#SVGID_8_);fill:#999999;" d="M29.5,61.1c-1.8,0-3.8-0.3-6-0.9c-1-0.3-1.7-1.4-1.4-2.4
			c0.9-3.7,2.9-6.5,5.8-8.2c2.9-1.7,6.3-2,10-0.9c0.8,0.2,1.3,0.9,1.4,1.7c0.7,5.4-1.8,8.1-4,9.3c0,0,0,0,0,0
			C33.7,60.6,31.7,61.1,29.5,61.1z M26.6,56.8c2.9,0.5,5.1,0.3,6.7-0.6c0.9-0.5,2.1-1.5,2.1-4c-2.1-0.4-3.9-0.1-5.5,0.9
			C28.4,53.9,27.3,55.1,26.6,56.8z"/>
	</g>
</g>
<path style="fill:#999999;" d="M75.8,49.4c-5-5.8-10.5-9.2-16.5-10.1c-4.2-3.7-10.7-4.8-19.4-3.1c-0.5,0.1-0.8,0.5-0.8,1
	s0.4,0.9,0.8,1c4.2,0.7,5.7,1.8,6.2,2.5c0.1,0.2,0.2,0.4,0.2,0.7c-3.5,1.7-6.9,4.4-10,8.1c-0.3,0.4-0.3,0.9,0,1.3
	c3.1,3.6,6.4,6.3,10,8.1c0,0.2-0.1,0.4-0.2,0.6c-0.5,0.7-2,1.7-6.2,2.5c-0.5,0.1-0.8,0.5-0.8,1s0.3,0.9,0.8,1
	c2.7,0.5,5.3,0.8,7.6,0.8c5,0,8.9-1.3,11.8-3.8c6-0.9,11.6-4.3,16.6-10.1C76.1,50.3,76.1,49.8,75.8,49.4z M47.6,39.6
	c-0.5-0.8-1.4-1.5-2.8-2c4.3-0.3,7.7,0.2,10.5,1.5c-2.5,0.1-4.9,0.6-7.3,1.5C48,40.2,47.8,39.8,47.6,39.6z M38.3,50
	c5.3-6,11.2-9,17.7-9c1.6,0,3.1,0.2,4.6,0.5c-1.1,1.5-2.7,4.4-2.7,8.5c0,3.5,0.9,6.3,2.5,8.4C59,58.9,57.5,59,56,59
	C49.6,59,43.6,56,38.3,50z M44.9,62.5c1.3-0.6,2.2-1.2,2.8-2c0.2-0.3,0.3-0.6,0.4-0.9c2.3,0.9,4.7,1.4,7.2,1.5
	C52.5,62.3,49.1,62.8,44.9,62.5z M62.5,57.9c-1.8-1.8-2.6-4.4-2.6-7.8c0-4.4,1.9-7,2.8-7.9c3.9,1.4,7.6,4,11,7.8
	C70.2,53.9,66.5,56.6,62.5,57.9z"/>
<g>
	<defs>
		<circle id="SVGID_9_" cx="65.5" cy="48.5" r="1.5"/>
	</defs>
	<clipPath id="SVGID_10_">
		<use xlink:href="#SVGID_9_"  style="overflow:visible;"/>
	</clipPath>
	<g style="clip-path:url(#SVGID_10_);">
		<defs>
			<rect id="SVGID_11_" x="1" y="0" width="100" height="100"/>
		</defs>
		<clipPath id="SVGID_12_">
			<use xlink:href="#SVGID_11_"  style="overflow:visible;"/>
		</clipPath>
		<rect x="59" y="42" style="clip-path:url(#SVGID_12_);fill:#999999;" width="13" height="13"/>
	</g>
</g>
</svg>
