<?xml version="1.0" encoding="utf-8"?>
<!-- Generator: Adobe Illustrator 21.1.0, SVG Export Plug-In . SVG Version: 6.00 Build 0)  -->
<svg version="1.1" id="Layer_1" xmlns="http://www.w3.org/2000/svg" xmlns:xlink="http://www.w3.org/1999/xlink" x="0px" y="0px"
	 viewBox="0 0 100 100" style="enable-background:new 0 0 100 100;" xml:space="preserve">
<g>
	<path style="fill:#999999;" d="M64,28.5h-2v-1c0-1.7-1.3-3-3-3s-3,1.3-3,3v1H44v-1c0-1.7-1.3-3-3-3s-3,1.3-3,3v1h-2
		c-3.9,0-7,3.1-7,7v29c0,3.9,3.1,7,7,7h28c3.9,0,7-3.1,7-7v-29C71,31.6,67.9,28.5,64,28.5z M58,27.5c0-0.6,0.4-1,1-1s1,0.4,1,1v1v4
		c0,0.6-0.4,1-1,1s-1-0.4-1-1v-4V27.5z M40,27.5c0-0.6,0.4-1,1-1s1,0.4,1,1v1v4c0,0.6-0.4,1-1,1s-1-0.4-1-1v-4V27.5z M69,64.5
		c0,2.8-2.2,5-5,5H36c-2.8,0-5-2.2-5-5v-26h38V64.5z M69,36.5H31v-1c0-2.8,2.2-5,5-5h2v2c0,1.7,1.3,3,3,3s3-1.3,3-3v-2h12v2
		c0,1.7,1.3,3,3,3s3-1.3,3-3v-2h2c2.8,0,5,2.2,5,5V36.5z"/>
	<path style="fill:#999999;" d="M44.4,56.3l-1,6c-0.1,0.4,0.1,0.8,0.4,1c0.3,0.2,0.7,0.2,1.1,0.1l5.1-2.8l5.1,2.8
		c0.2,0.1,0.3,0.1,0.5,0.1c0.2,0,0.4-0.1,0.6-0.2c0.3-0.2,0.5-0.6,0.4-1l-1-6l4.1-4.3c0.3-0.3,0.4-0.7,0.2-1s-0.4-0.6-0.8-0.7
		l-5.7-0.9l-2.6-5.4c-0.2-0.4-0.5-0.6-0.9-0.6s-0.7,0.2-0.9,0.6l-2.6,5.4l-5.7,0.9c-0.4,0.1-0.7,0.3-0.8,0.7s0,0.7,0.2,1L44.4,56.3z
		 M47.4,51.4c0.3,0,0.6-0.3,0.8-0.6l1.9-4l1.9,4c0.1,0.3,0.4,0.5,0.8,0.6l4.3,0.7l-3.1,3.2c-0.2,0.2-0.3,0.5-0.3,0.9l0.7,4.5
		l-3.8-2.1c-0.2-0.1-0.3-0.1-0.5-0.1c-0.2,0-0.3,0-0.5,0.1l-3.8,2.1l0.7-4.5c0.1-0.3,0-0.6-0.3-0.9l-3.1-3.2L47.4,51.4z"/>
</g>
</svg>
