<?xml version="1.0" encoding="utf-8"?>
<!-- Generator: Adobe Illustrator 21.1.0, SVG Export Plug-In . SVG Version: 6.00 Build 0)  -->
<svg version="1.1" id="Layer_1" xmlns="http://www.w3.org/2000/svg" xmlns:xlink="http://www.w3.org/1999/xlink" x="0px" y="0px"
	 viewBox="0 0 100 100" style="enable-background:new 0 0 100 100;" xml:space="preserve">
<path style="fill:#999999;" d="M73,37.7C73,37.7,72.9,37.7,73,37.7c0-0.1-0.1-0.2-0.2-0.3c0,0,0,0-0.1-0.1c-0.1-0.1-0.1-0.2-0.2-0.2
	c0,0,0,0,0,0c0,0,0,0,0,0l-22-12c-0.3-0.2-0.7-0.2-1,0l-22,12c0,0,0,0,0,0c0,0,0,0,0,0c-0.1,0.1-0.2,0.1-0.2,0.2c0,0,0,0-0.1,0.1
	c-0.1,0.1-0.1,0.2-0.1,0.3c0,0,0,0,0,0c0,0.1,0,0.2,0,0.3v24c0,0.4,0.2,0.7,0.5,0.9l22,12c0,0,0.1,0,0.1,0.1c0,0,0.1,0,0.1,0
	c0.1,0,0.2,0,0.3,0c0.1,0,0.2,0,0.3,0c0,0,0.1,0,0.1,0c0,0,0.1,0,0.1-0.1l22-12c0.3-0.2,0.5-0.5,0.5-0.9V38C73,37.9,73,37.8,73,37.7
	z M50,27.1l8.9,4.9L39,42.9L30.1,38L50,27.1z M49,72.3L29,61.4V39.7l20,10.9V72.3z M50,48.9L41.1,44L61,33.1l8.9,4.9L50,48.9z
	 M71,61.4L51,72.3V50.6l20-10.9V61.4z"/>
<g>
	<defs>
		<path id="SVGID_1_" d="M38.1,62.5c-0.3-0.2-0.6-0.5-0.9-0.8c-0.3-0.4-0.4-0.7-0.4-1.1c0-0.3,0.1-0.6,0.4-0.7
			c0.2-0.1,0.5,0,0.9,0.2c0.3,0.2,0.6,0.5,0.9,0.9c0.2,0.4,0.4,0.7,0.4,1.1c0,0.4-0.1,0.6-0.4,0.7C38.7,62.7,38.4,62.6,38.1,62.5z
			 M34,51c0-0.5,0.2-1,0.5-1.3c0.3-0.3,0.8-0.5,1.5-0.5c0.6,0,1.4,0.3,2.3,0.8c0.8,0.5,1.5,1,2.1,1.7c0.6,0.6,1.1,1.3,1.4,2
			c0.3,0.7,0.5,1.4,0.5,2c0,0.5-0.1,0.8-0.3,1.1c-0.2,0.2-0.4,0.4-0.7,0.5c-0.3,0.1-0.7,0.3-1.4,0.5c-0.2,0.1-0.3,0.1-0.5,0.2
			s-0.2,0.1-0.3,0.2c-0.1,0.1-0.1,0.2-0.1,0.3c0,0.1-0.1,0.3-0.1,0.5c-0.1,0.5-0.4,0.6-1,0.3c-0.3-0.2-0.5-0.4-0.7-0.7
			s-0.3-0.6-0.3-1c0-0.5,0.1-0.8,0.2-1.1c0.1-0.3,0.3-0.4,0.6-0.6c0.2-0.1,0.6-0.2,1-0.4c0.4-0.1,0.6-0.2,0.8-0.3
			c0.2-0.1,0.3-0.2,0.4-0.3c0.1-0.1,0.2-0.3,0.2-0.5c0-0.4-0.2-0.9-0.5-1.4c-0.3-0.5-0.8-0.9-1.3-1.2c-0.6-0.3-1.1-0.5-1.3-0.3
			c-0.3,0.1-0.5,0.5-0.7,0.9c-0.2,0.5-0.5,0.6-1.1,0.3c-0.3-0.2-0.6-0.4-0.8-0.8C34.1,51.6,34,51.3,34,51z"/>
	</defs>
	<clipPath id="SVGID_2_">
		<use xlink:href="#SVGID_1_"  style="overflow:visible;"/>
	</clipPath>
	<g style="clip-path:url(#SVGID_2_);">
		<defs>
			<rect id="SVGID_3_" y="2" width="100" height="100"/>
		</defs>
		<clipPath id="SVGID_4_">
			<use xlink:href="#SVGID_3_"  style="overflow:visible;"/>
		</clipPath>
		<rect x="29" y="44.2" style="clip-path:url(#SVGID_4_);fill:#999999;" width="18.3" height="23.5"/>
	</g>
</g>
</svg>
