<?xml version="1.0" encoding="utf-8"?>
<!-- Generator: Adobe Illustrator 21.1.0, SVG Export Plug-In . SVG Version: 6.00 Build 0)  -->
<svg version="1.1" id="Layer_1" xmlns="http://www.w3.org/2000/svg" xmlns:xlink="http://www.w3.org/1999/xlink" x="0px" y="0px"
	 viewBox="0 0 100 100" style="enable-background:new 0 0 100 100;" xml:space="preserve">
<g>
	<path style="fill:#999999;" d="M50,45c3.3,0,6-2.7,6-6s-2.7-6-6-6s-6,2.7-6,6S46.7,45,50,45z M50,35c2.2,0,4,1.8,4,4s-1.8,4-4,4
		c-2.2,0-4-1.8-4-4S47.8,35,50,35z"/>
	<path style="fill:#999999;" d="M67.6,50H57.2c2.5-4.4,3.8-7.9,3.8-10.4C61,33.2,56.1,28,50,28s-11,5.2-11,11.6
		c0,2.5,1.2,6,3.8,10.4H32.4l-9,18h53.2L67.6,50z M50,30c5,0,9,4.3,9,9.6c0,2.4-1.4,5.9-4.2,10.5l-0.2,0.4c-0.3,0.5-0.6,1-1,1.5
		c0,0.1-0.1,0.1-0.1,0.2c-0.3,0.5-0.6,0.9-0.9,1.4c-0.1,0.1-0.1,0.2-0.2,0.3c-0.3,0.5-0.6,0.9-1,1.4c-0.1,0.1-0.1,0.2-0.2,0.3
		c-0.4,0.6-0.8,1.2-1.2,1.8c-0.4-0.6-0.8-1.2-1.2-1.7c-0.1-0.1-0.2-0.3-0.3-0.4c-0.3-0.4-0.6-0.9-0.9-1.3c-0.1-0.1-0.2-0.3-0.3-0.4
		c-0.3-0.4-0.6-0.9-0.9-1.3c-0.1-0.1-0.1-0.2-0.2-0.3c-0.3-0.5-0.6-1-0.9-1.5l-0.2-0.4C42.4,45.5,41,42,41,39.6C41,34.3,45,30,50,30
		z M33.6,52H44c0,0,0.1,0.1,0.1,0.2c0.3,0.5,0.6,1,0.9,1.5c0.1,0.1,0.2,0.3,0.3,0.4c0.3,0.4,0.6,0.9,0.9,1.3
		c0.1,0.2,0.2,0.4,0.4,0.5c0.3,0.4,0.6,0.9,0.9,1.3c0.1,0.2,0.3,0.4,0.4,0.6c0.4,0.6,0.9,1.3,1.4,1.9l0.8,1.1l0.8-1.1
		c0.5-0.7,0.9-1.3,1.4-1.9c0.1-0.2,0.2-0.3,0.3-0.4c0.3-0.5,0.7-1,1-1.5c0.1-0.1,0.2-0.3,0.3-0.4c0.3-0.5,0.7-1,1-1.5
		c0.1-0.1,0.1-0.2,0.2-0.3c0.4-0.6,0.7-1.1,1-1.6c0,0,0,0,0,0h10.3l7,14H26.6L33.6,52z"/>
	<path style="fill:#999999;" d="M64.9,62.1H33.6l3.6-7.7c0.2-0.5,0-1.1-0.5-1.3c-0.5-0.2-1.1,0-1.3,0.5l-4.9,10.5h34.5
		c0.6,0,1-0.4,1-1S65.5,62.1,64.9,62.1z"/>
</g>
</svg>
